<svg width="60" height="60" viewBox="0 0 60 60" fill="none" xmlns="http://www.w3.org/2000/svg">
<path d="M54.8019 46.0833L60.0002 43.1459V6.71265L50.2529 11.8879V18.041L54.7298 15.5241L54.8019 46.0833Z" fill="#7EC7FF"/>
<path d="M42.1659 52.587L47.3643 49.79V0L30.036 9.79033L12.4766 0V10.0695L17.7302 12.8674L17.6169 8.671L29.9199 15.5066L42.1659 8.671V52.587Z" fill="#7EC7FF"/>
<path d="M12.4774 23.0947L17.7619 26.0141V43.357L12.4185 40.4195L12.4774 23.0947Z" fill="#7EC7FF"/>
<path d="M38.9893 24.3347V18.5087L29.9205 23.5081L0 6.71265V43.0761L29.7473 59.9993L35.2349 57.0619L5.05428 40.1395V15.3836L29.8915 29.3703L38.9893 24.3347Z" fill="#7EC7FF"/>
</svg>
