<svg width="66" height="52" viewBox="0 0 66 52" fill="none" xmlns="http://www.w3.org/2000/svg">
<path d="M11.7304 8.80568C8.83589 9.21193 6.2562 11.3651 5.33198 14.1479C5.18979 14.5846 5.03745 15.2346 5.00698 15.5901C4.97651 15.9455 4.91557 16.2908 4.87495 16.3619C4.82417 16.4229 4.49917 16.5244 4.15386 16.5752C1.72651 16.9002 -0.0406756 19.2869 0.304637 21.7447C0.487449 23.0346 1.44214 24.426 2.61011 25.0963L3.14839 25.401V28.844C3.14839 30.9463 3.18901 32.5002 3.26011 32.8252C3.43276 33.6885 4.00151 34.7549 4.62104 35.4049L5.18979 36.0041L4.51948 38.8072C4.15386 40.351 3.85932 41.8338 3.85932 42.1182C3.85932 43.4791 5.36245 44.6471 6.66245 44.2916C7.73901 44.0072 8.22651 43.3877 8.63276 41.7932C8.80542 41.1229 8.99839 40.4018 9.04917 40.1885L9.15073 39.8127L25.8171 39.833L42.4835 39.8635L42.8187 41.1838C43.296 43.0119 43.4179 43.3065 43.9257 43.7533C44.6874 44.4236 45.5812 44.5557 46.4749 44.1393C47.2671 43.7736 47.8257 42.9104 47.8359 42.0471C47.8359 41.8541 47.521 40.4119 47.1351 38.8479L46.4445 36.0041L47.0437 35.3744C47.7749 34.6026 48.3031 33.5463 48.4453 32.551C48.496 32.1549 48.5468 30.3776 48.5468 28.5799V25.3197L48.9734 25.1268C49.6742 24.8119 50.5273 23.8979 50.9539 22.994C51.3296 22.2119 51.3398 22.1611 51.3398 21.0643C51.3398 19.9776 51.3296 19.9268 50.964 19.1854C50.182 17.601 48.6179 16.5651 47.0132 16.5549H46.546L46.4749 15.9151C46.1906 13.1424 44.5046 10.7354 41.996 9.53693C40.2999 8.72443 41.6406 8.78537 25.9999 8.77521C18.3218 8.76506 11.9031 8.78537 11.7304 8.80568ZM40.7468 10.4713C43.2249 11.4361 44.9109 13.5994 45.0632 15.9963L45.114 16.8088L44.5249 17.1135C43.7328 17.5197 43.0015 18.2815 42.6156 19.0838L42.3007 19.7541L42.2703 23.5424L42.2398 27.3307L41.6609 26.8736C40.9703 26.3455 40.4726 26.0815 39.6601 25.8276C39.1015 25.6651 38.6242 25.6447 34.2773 25.6447C29.6257 25.6447 29.4835 25.6549 28.8945 25.8682C27.7265 26.2947 26.6906 27.0565 26.0203 27.9807L25.7968 28.2854L25.5734 27.9807C24.8015 26.9549 23.9687 26.3354 22.8109 25.9088L22.0898 25.6447H17.3164C12.9796 25.6447 12.482 25.6651 11.9335 25.8276C11.1617 26.0611 10.1968 26.5994 9.81089 27.0057C9.63823 27.1783 9.47573 27.3205 9.43511 27.3205C9.38432 27.3205 9.3437 25.6651 9.32339 23.6338L9.29292 19.9572L8.91714 19.1752C8.49057 18.2611 7.94214 17.6924 6.97729 17.1236C6.33745 16.758 6.29682 16.7072 6.29682 16.3619C6.29682 15.6713 6.60151 14.5744 6.99761 13.7619C7.65776 12.4315 8.91714 11.2229 10.2273 10.6541C11.3851 10.1565 10.9078 10.1666 25.9492 10.1869L40.0664 10.2072L40.7468 10.4713ZM6.10386 18.1494C6.7437 18.4338 7.37339 19.0229 7.69839 19.6424L7.97261 20.1604L8.02339 26.0307C8.07417 31.6979 8.08432 31.9111 8.26714 32.0533C8.57182 32.2666 43.0218 32.2666 43.3265 32.0533C43.5093 31.9111 43.5195 31.6979 43.5703 26.1322L43.621 20.3635L43.9054 19.7846C44.2609 19.0533 45.0328 18.3526 45.7234 18.119C46.8203 17.7635 48.1304 18.058 48.9835 18.8807C49.6437 19.5002 49.9078 20.1299 49.9078 21.0744C49.9179 21.7651 49.8773 21.9783 49.6335 22.4658C49.2984 23.1565 48.6179 23.7862 47.9578 24.0299C47.6937 24.1213 47.3789 24.3143 47.257 24.4463C47.0234 24.6901 47.0234 24.6901 47.0234 28.4885C47.0234 31.8908 47.0031 32.3377 46.8406 32.8861C46.4749 34.044 45.5812 34.9885 44.4132 35.4658L43.8242 35.6994H25.7968H7.76948L7.18042 35.4658C6.01245 34.9885 5.1187 34.044 4.75307 32.8861C4.59057 32.3377 4.57026 31.8908 4.57026 28.4479C4.57026 24.1924 4.59057 24.3041 3.88979 24.0908C2.65073 23.7252 1.62495 22.344 1.62495 21.0744C1.62495 20.2213 2.21401 19.0533 2.90464 18.5151C3.76792 17.8651 5.10854 17.7127 6.10386 18.1494ZM22.7703 27.3916C23.146 27.5643 23.664 27.9197 23.9179 28.1838C24.4562 28.7119 24.9539 29.6869 25.0453 30.3979L25.1164 30.8752H17.2757H9.44526V30.6416C9.44526 30.2049 9.77026 29.301 10.1257 28.7729C10.6539 27.9705 11.5476 27.351 12.4617 27.1276C12.6749 27.0768 14.9296 27.0361 17.4687 27.0463L22.0898 27.0666L22.7703 27.3916ZM38.9593 27.1276C40.5945 27.4221 41.8843 28.7424 42.1382 30.3674L42.2195 30.8752H34.3585H26.4874L26.5585 30.4385C26.6601 29.7986 27.1476 28.8135 27.6249 28.2955C28.1226 27.7674 29.0874 27.2494 29.8187 27.1276C30.5906 26.9955 38.2484 26.9955 38.9593 27.1276ZM7.41401 36.9791L7.94214 37.0908L7.90151 38.1268C7.85073 39.5791 7.19057 42.2807 6.79448 42.6768C6.4187 43.0627 5.97182 43.0526 5.57573 42.6666C5.38276 42.4736 5.2812 42.2604 5.2812 42.0674C5.2812 41.8338 5.67729 40.0869 6.44917 36.8877C6.49995 36.7049 6.54057 36.6744 6.69292 36.7658C6.80464 36.8166 7.12964 36.9182 7.41401 36.9791ZM45.7945 39.4065C46.3734 41.7729 46.4242 42.0877 46.3124 42.3619C46.1804 42.6666 45.764 42.9611 45.4492 42.9611C45.1445 42.9611 44.7179 42.6666 44.6062 42.3822C44.5351 42.2299 44.3015 41.3463 44.0781 40.4221C43.7734 39.1729 43.6718 38.533 43.6718 37.9033V37.0705L43.9562 37.0604C44.1085 37.0604 44.3929 36.9994 44.5859 36.9283C44.7789 36.8471 44.9921 36.7861 45.0429 36.776C45.1039 36.776 45.439 37.9541 45.7945 39.4065ZM42.2499 37.7815V38.3908H25.7968H9.3437V37.7815V37.1721H25.7968H42.2499V37.7815Z" fill="#6CD3FF"/>
<path d="M17.55 14.7167C17.2758 14.9605 17.2148 15.0824 17.2148 15.4378C17.2148 15.7933 17.2758 15.9152 17.55 16.1589C17.9156 16.4839 18.2508 16.5245 18.6875 16.3011C19.043 16.1183 19.1953 15.8644 19.1953 15.4378C19.1953 15.0113 19.043 14.7574 18.6875 14.5745C18.2508 14.3511 17.9156 14.3917 17.55 14.7167Z" fill="#6CD3FF"/>
<path d="M25.5023 14.5847C25.3703 14.6761 25.2078 14.9097 25.1266 15.0925C24.832 15.7831 25.4312 16.5347 26.1828 16.423C27.3203 16.2402 27.3 14.605 26.1523 14.4628C25.868 14.4222 25.675 14.4628 25.5023 14.5847Z" fill="#6CD3FF"/>
<path d="M33.1906 14.7167C32.9164 14.9605 32.8555 15.0824 32.8555 15.4378C32.8555 15.7933 32.9164 15.9152 33.1906 16.1589C33.5562 16.4839 33.8914 16.5245 34.3281 16.3011C34.6836 16.1183 34.8359 15.8644 34.8359 15.4378C34.8359 15.0113 34.6836 14.7574 34.3281 14.5745C33.8914 14.3511 33.5562 14.3917 33.1906 14.7167Z" fill="#6CD3FF"/>
<path d="M13.5991 19.1449C12.8577 19.5512 13.0507 20.709 13.8936 20.9731C14.2491 21.0746 14.8077 20.841 14.9804 20.516C15.478 19.5512 14.5538 18.627 13.5991 19.1449Z" fill="#6CD3FF"/>
<path d="M21.3992 19.1039C21.1758 19.2359 20.9219 19.7234 20.9219 20.0484C20.9219 20.1906 21.0539 20.4547 21.2164 20.6375C21.4602 20.9117 21.582 20.9727 21.9375 20.9727C22.293 20.9727 22.4148 20.9117 22.6586 20.6375C22.8211 20.4547 22.9531 20.1906 22.9531 20.0484C22.9531 19.7133 22.6992 19.2258 22.4555 19.0937C22.2016 18.9617 21.6328 18.9719 21.3992 19.1039Z" fill="#6CD3FF"/>
<path d="M29.0366 19.2871C28.5593 19.7645 28.671 20.5161 29.2702 20.8614C30.0624 21.3387 31.0273 20.4551 30.6718 19.5918C30.4077 18.9621 29.5343 18.7996 29.0366 19.2871Z" fill="#6CD3FF"/>
<path d="M36.857 19.287C36.0648 20.0894 36.9382 21.3691 37.9538 20.8816C38.614 20.5667 38.7257 19.7237 38.1671 19.2464C37.7405 18.8909 37.2429 18.9011 36.857 19.287Z" fill="#6CD3FF"/>
<rect width="32" height="32" transform="translate(34 16)" fill="#F6F6F6"/>
<path d="M49.525 17.0814C49.4125 17.1252 48.9437 17.4252 48.475 17.7502C48.0062 18.0752 47.25 18.5689 46.7937 18.8439C45.8812 19.4064 45.7437 19.5564 45.875 19.8814C45.9687 20.0939 46.1062 20.1877 46.3437 20.1877C46.5437 20.1877 48.0437 19.2939 49.0812 18.5502C49.5562 18.2064 49.9062 18.0002 50 18.0002C50.0937 18.0002 50.325 18.1189 50.5312 18.2689C53.9 20.7189 57.6937 22.3814 61.7375 23.1814C62.4687 23.3314 62.6062 23.3877 62.6812 23.5814C62.7125 23.6627 62.7875 24.1439 62.85 24.6564C62.9875 25.8127 63.0062 28.7752 62.8875 29.8752C62.6312 32.1439 62.15 34.1189 61.4 35.9252C61.25 36.2939 61.125 36.6814 61.125 36.7877C61.125 37.2002 61.65 37.4002 61.9312 37.1002C62.1937 36.8189 62.9562 34.7439 63.3062 33.3439C63.9937 30.6064 64.175 27.0252 63.7812 24.0439C63.6375 22.9502 63.2687 22.4752 62.45 22.3127C58.1812 21.4564 54.8312 20.0627 51.5625 17.7752C51.1062 17.4564 50.6187 17.1502 50.4875 17.0939C50.2062 16.9814 49.8 16.9814 49.525 17.0814Z" fill="#6CD3FF"/>
<path d="M43.1625 18.1437C43.0813 18.225 43 18.4062 42.975 18.5625C42.875 19.225 42.5938 20.25 42.4063 20.6625C41.9625 21.6375 41.3875 21.9875 39.5625 22.375C38.65 22.5687 38.5 22.6625 38.5 23C38.5 23.3437 38.65 23.4312 39.5625 23.625C41.3875 24.0125 41.9563 24.35 42.3938 25.3125C42.5938 25.7437 42.8688 26.7625 42.975 27.4375C43.0313 27.775 43.2375 28 43.4875 28C43.8313 28 43.9313 27.8437 44.0938 27.0625C44.6313 24.5437 45.0438 24.1312 47.5625 23.5937C48.3375 23.4312 48.5 23.3312 48.5 23C48.5 22.6687 48.3375 22.5687 47.5625 22.4062C45.05 21.875 44.625 21.45 44.0938 18.9375C43.9813 18.3937 43.9125 18.1937 43.8063 18.1125C43.6188 17.9562 43.3375 17.9687 43.1625 18.1437ZM43.6438 21.0625C43.8875 21.75 44.75 22.6125 45.4375 22.8562C45.6125 22.9187 45.75 22.9812 45.75 23C45.75 23.0187 45.6125 23.0812 45.4375 23.1437C44.75 23.3875 43.8875 24.25 43.6438 24.9375C43.5813 25.1125 43.5188 25.25 43.5 25.25C43.4813 25.25 43.4188 25.1125 43.3563 24.9375C43.1125 24.25 42.25 23.3875 41.5625 23.1437C41.3875 23.0812 41.25 23.0187 41.25 23C41.25 22.9812 41.3875 22.9187 41.5625 22.8562C42.25 22.6125 43.1125 21.75 43.3563 21.0625C43.4188 20.8875 43.4813 20.75 43.5 20.75C43.5188 20.75 43.5813 20.8875 43.6438 21.0625Z" fill="#6CD3FF"/>
<path d="M49.4937 20.6C49.1124 20.7562 49.0124 21.1437 49.2874 21.4187C49.4312 21.5625 49.4749 21.575 49.7749 21.5375C50.0999 21.4937 50.1062 21.5 50.9374 22C52.5187 22.9562 54.6312 24 54.9874 24C55.3624 24 55.5749 23.4875 55.3312 23.2C55.2687 23.1312 54.9499 22.9562 54.6249 22.8125C53.7687 22.4375 52.3812 21.7062 51.4687 21.1562C51.0374 20.8937 50.5874 20.6375 50.4687 20.5875C50.1937 20.475 49.7812 20.4812 49.4937 20.6Z" fill="#6CD3FF"/>
<path d="M36.5124 23.5628C36.4312 23.5941 36.3312 23.7128 36.2874 23.8253C36.0187 24.4691 35.9374 28.4066 36.1499 30.2191C36.5374 33.5628 37.5562 36.6628 39.0249 38.9941C39.3187 39.4566 39.6437 39.5441 39.9374 39.2503C40.1374 39.0503 40.0874 38.8441 39.6499 38.0753C37.6624 34.6191 36.7124 30.0441 37.0624 25.6566C37.2124 23.7941 37.2124 23.8566 37.0874 23.7066C36.9437 23.5441 36.7124 23.4816 36.5124 23.5628Z" fill="#6CD3FF"/>
<path d="M56.8187 23.9815C56.75 24.044 56.6687 24.1815 56.65 24.2815C56.5937 24.5877 56.7937 24.7752 57.3812 24.969C57.8187 25.119 57.9062 25.1252 58.0687 25.0627C58.2875 24.969 58.375 24.8315 58.375 24.5752C58.375 24.3315 58.1812 24.169 57.6937 24.0065C57.2 23.844 56.9937 23.844 56.8187 23.9815Z" fill="#6CD3FF"/>
<path d="M59.9375 24.8875C59.5938 25.0125 59.5313 25.3813 59.8 25.7313C59.9625 25.9563 59.9688 25.9813 59.9875 26.9313C60.0375 29.025 59.725 31.1938 59.0938 33.225C58.975 33.6125 58.875 33.9938 58.875 34.075C58.875 34.425 59.4688 34.65 59.7 34.3875C59.9063 34.1563 60.4 32.4313 60.65 31.0625C60.9 29.6625 60.9625 28.925 60.9688 27.3125C60.9688 25.6313 60.9563 25.55 60.5688 25.1125C60.3563 24.8688 60.1688 24.8 59.9375 24.8875Z" fill="#6CD3FF"/>
<path d="M39.3686 25.2812C39.2749 25.3312 39.1624 25.4625 39.1249 25.575C39.0061 25.875 38.9749 27.475 39.0561 28.6437C39.4749 34.525 41.8561 38.9375 46.1499 41.7562C47.3999 42.5812 49.4249 43.5 49.9936 43.5C50.4249 43.5 52.4624 42.65 52.6624 42.3875C52.8686 42.1187 52.6499 41.625 52.3186 41.625C52.2249 41.625 51.8374 41.7625 51.4624 41.9312C51.0874 42.1 50.5936 42.3 50.3686 42.3812L49.9561 42.525L49.2749 42.2562C48.4061 41.9125 47.3374 41.3562 46.6061 40.8687C42.8811 38.375 40.7061 34.5562 40.1186 29.4687C40.0311 28.675 40.0061 26.1437 40.0874 25.8C40.1374 25.5875 40.1249 25.55 39.9499 25.375C39.7374 25.1687 39.6124 25.15 39.3686 25.2812Z" fill="#6CD3FF"/>
<path d="M55.3062 27.0878C54.9749 27.2066 54.7874 27.3566 54.0937 28.0753C53.7499 28.4253 52.6062 29.6003 51.5499 30.6691C49.7062 32.5503 49.6249 32.6253 49.3937 32.6253C49.1749 32.6253 49.0999 32.5628 48.1124 31.5753C47.4999 30.9628 46.9749 30.4878 46.8312 30.4253C46.5312 30.2878 45.8874 30.2816 45.5812 30.4066C45.2999 30.5253 44.3437 31.4566 44.1687 31.7816C43.9812 32.1316 43.9812 32.8691 44.1687 33.2191C44.2437 33.3566 45.2437 34.4253 46.3999 35.6003C48.7437 37.9878 48.8187 38.0441 49.4999 37.9816C49.6937 37.9691 49.9624 37.8941 50.0999 37.8253C50.4499 37.6441 57.5999 30.3441 57.8124 29.9503C58.0249 29.5503 58.0312 28.9066 57.8187 28.5003C57.5874 28.0566 56.7124 27.2316 56.3437 27.1066C55.9874 26.9816 55.6187 26.9753 55.3062 27.0878ZM56.4812 28.4566C56.8812 28.8441 56.9499 28.9441 56.9812 29.1753C57.0249 29.4816 57.1624 29.3191 54.4062 32.1253C50.8062 35.7941 49.6499 36.9441 49.5062 36.9816C49.4312 37.0003 49.2812 36.9753 49.1874 36.9316C48.9187 36.8003 45.075 32.8566 45.025 32.6628C44.9625 32.3941 45.0437 32.2128 45.4249 31.8066C45.8624 31.3253 46.0999 31.2128 46.3937 31.3316C46.4999 31.3816 47.0187 31.8566 47.5312 32.3878C48.0874 32.9628 48.5687 33.4003 48.7187 33.4691C49.0499 33.6316 49.7562 33.6378 50.0624 33.4816C50.1812 33.4191 51.4749 32.1628 52.9374 30.6816C56.0562 27.5316 55.7374 27.7316 56.4812 28.4566Z" fill="#6CD3FF"/>
<path d="M58.6938 36.1125C58.5875 36.1937 58.5188 36.3937 58.4063 36.9375C57.875 39.45 57.45 39.875 54.9375 40.4062C54.1625 40.5687 54 40.6687 54 41C54 41.3375 54.15 41.4312 55.0625 41.625C57.4563 42.1375 57.875 42.5687 58.4063 45.0625C58.5688 45.8375 58.6688 46 59 46C59.3438 46 59.4313 45.85 59.625 44.9375C60 43.125 60.35 42.5437 61.3125 42.1062C61.7438 41.9062 62.7625 41.6312 63.4375 41.525C63.775 41.4687 64 41.2625 64 41.0125C64 40.6687 63.8438 40.5687 63.0625 40.4062C60.5625 39.875 60.1313 39.4562 59.625 37.0625C59.4875 36.4125 59.4125 36.1937 59.3063 36.1125C59.1375 35.9687 58.8625 35.9687 58.6938 36.1125ZM59.1438 39.0625C59.3875 39.75 60.25 40.6125 60.9375 40.8562C61.1125 40.9187 61.25 40.9812 61.25 41C61.25 41.0187 61.1125 41.0812 60.9375 41.1437C60.25 41.3875 59.3875 42.25 59.1438 42.9375C59.0813 43.1125 59.0188 43.25 59 43.25C58.9813 43.25 58.9188 43.1125 58.8563 42.9375C58.6125 42.25 57.75 41.3875 57.0625 41.1437C56.8875 41.0812 56.75 41.0187 56.75 41C56.75 40.9812 56.8875 40.9187 57.0625 40.8562C57.75 40.6125 58.6125 39.75 58.8563 39.0625C58.9188 38.8875 58.9813 38.75 59 38.75C59.0188 38.75 59.0813 38.8875 59.1438 39.0625Z" fill="#6CD3FF"/>
<path d="M40.5186 40.2812C40.3561 40.3937 40.2936 40.6312 40.3686 40.825C40.3999 40.9125 40.5686 41.1375 40.7499 41.3312C41.0061 41.6125 41.1124 41.6875 41.2624 41.6875C41.5124 41.6875 41.6561 41.6 41.7436 41.3875C41.8436 41.1437 41.7686 40.975 41.3749 40.5437C41.0249 40.1562 40.7936 40.0875 40.5186 40.2812Z" fill="#6CD3FF"/>
<path d="M42.4374 42.3439C42.2749 42.5189 42.2437 42.8126 42.3812 42.9751C42.5624 43.2001 43.7499 44.1064 44.5374 44.6189C45.9187 45.5314 47.7999 46.4126 49.2812 46.8439C49.9687 47.0439 50.1749 47.0314 51.1687 46.7001C52.6812 46.1876 54.2812 45.4126 55.5437 44.5689C56.1437 44.1626 56.1562 44.1501 56.1749 43.8939C56.1874 43.6939 56.1624 43.6001 56.0687 43.5064C55.8374 43.2751 55.5999 43.3376 54.8812 43.8064C53.6374 44.6126 52.1749 45.3126 50.7312 45.7876L49.9937 46.0314L48.9937 45.6939C47.2749 45.1189 45.4062 44.1126 43.9999 43.0189C42.9624 42.2126 42.9249 42.1876 42.7499 42.1876C42.6562 42.1876 42.5249 42.2501 42.4374 42.3439Z" fill="#6CD3FF"/>
</svg>
