<svg width="52" height="52" viewBox="0 0 52 52" fill="none" xmlns="http://www.w3.org/2000/svg">
<path d="M26 9.59863C24.5976 9.59863 23.2441 10.0122 22.0862 10.7945C21.7386 11.0293 21.6473 11.5014 21.882 11.849C22.1167 12.1966 22.5887 12.2878 22.9364 12.0532C23.8424 11.4411 24.9017 11.1176 26 11.1176C29.0219 11.1176 31.4802 13.576 31.4802 16.5979C31.4802 19.6198 29.0219 22.0782 26 22.0782C22.9781 22.0782 20.5198 19.6198 20.5198 16.5979C20.5198 15.7036 20.7398 14.8165 21.1557 14.0329C21.3522 13.6624 21.2114 13.2026 20.841 13.0059C20.4702 12.8093 20.0107 12.9502 19.814 13.3206C19.2821 14.3228 19.0009 15.4561 19.0009 16.5979C19.0009 20.4574 22.1408 23.5972 26 23.5972C29.8593 23.5972 32.9992 20.4573 32.9992 16.5979C32.9992 12.7384 29.8594 9.59863 26 9.59863Z" fill="#6CD3FF"/>
<path d="M51.9416 50.7544L46.1825 36.9168C46.1813 36.914 46.1802 36.911 46.179 36.9082L44.4459 32.7442C44.3281 32.4611 44.0515 32.2766 43.7447 32.2766H36.2751C37.7281 30.3112 38.9373 28.3534 39.8817 26.4311C41.5554 23.0245 42.404 19.7162 42.404 16.5979C42.404 7.55266 35.0452 0.193848 26 0.193848C16.9549 0.193848 9.59598 7.55266 9.59598 16.598C9.59598 19.7163 10.4445 23.0247 12.1183 26.4312C13.0627 28.3535 14.2719 30.3112 15.7249 32.2767H8.25515C7.94843 32.2767 7.67177 32.4613 7.55396 32.7443L4.36998 40.3946C4.2088 40.7819 4.39202 41.2265 4.77927 41.3876C5.16643 41.5489 5.61107 41.3656 5.77225 40.9783L6.45455 39.339C7.2181 39.3242 8.71198 39.2272 10.467 38.7568C13.3413 37.9863 15.73 36.5165 17.4535 34.4798C17.501 34.537 17.5475 34.5944 17.5954 34.6516C18.1526 35.317 18.7082 35.9472 19.2524 36.5415C15.7962 37.7366 13.7376 39.7844 13.7376 42.0414C13.7376 42.9013 14.0324 43.7176 14.5721 44.4637C12.2278 45.9064 9.66595 46.5312 6.94286 46.3213C5.57258 46.2156 4.47124 45.9111 3.81311 45.6862L4.60378 43.7864C4.76496 43.3991 4.58174 42.9545 4.19448 42.7934C3.80702 42.6319 3.36258 42.8154 3.2015 43.2027L0.0583457 50.7544C-0.0392559 50.9887 -0.0132559 51.2564 0.127713 51.4676C0.26858 51.6788 0.505627 51.8057 0.759533 51.8057H30.7081C30.7088 51.8057 30.7095 51.8058 30.7102 51.8058C30.7108 51.8058 30.7114 51.8057 30.7121 51.8057H51.2406C51.4945 51.8057 51.7316 51.6788 51.8724 51.4676C52.0132 51.2565 52.0391 50.9889 51.9416 50.7544ZM43.2381 33.7956L44.366 36.5055C41.0694 36.8373 38.5322 38.5661 37.3585 39.5213C36.4277 38.2878 34.8222 37.25 32.7528 36.5357C33.2954 35.943 33.8492 35.3148 34.4045 34.6515C34.6434 34.3662 34.8759 34.0809 35.1048 33.7956H43.2381ZM10.1199 37.2773C8.92678 37.6011 7.85418 37.7344 7.10028 37.7878L8.76185 33.7956H16.041C14.5501 35.4441 12.5657 36.6132 10.1199 37.2773ZM18.7601 33.6766C12.4411 26.1298 11.1149 20.2236 11.1149 16.598C11.1149 8.39024 17.7924 1.71282 26 1.71282C34.2077 1.71282 40.8851 8.39024 40.8851 16.598C40.8851 20.2187 39.5622 26.1167 33.2595 33.653C30.2196 37.2881 27.1432 39.9427 25.9998 40.8858C24.8597 39.9459 21.798 37.3048 18.7601 33.6766ZM31.5889 42.0413C31.5889 42.6616 29.6162 43.8691 25.9998 43.8691C22.3835 43.8691 20.4108 42.6616 20.4108 42.0413C20.4108 41.6054 21.3855 40.8805 23.2184 40.4873C24.5586 41.7022 25.4586 42.403 25.5353 42.4623C25.6722 42.5683 25.8361 42.6211 26 42.6211C26.164 42.6211 26.328 42.5682 26.4648 42.4623C26.5415 42.403 27.4414 41.7021 28.7818 40.4874C30.6143 40.8806 31.5889 41.6054 31.5889 42.0413ZM38.3651 50.2869C39.5336 49.9144 40.6341 49.4859 41.6591 48.9996C42.038 48.8198 42.1995 48.3668 42.0197 47.9878C41.8398 47.6089 41.3869 47.4474 41.0079 47.6271C38.1549 48.9807 34.6766 49.8752 30.6698 50.2868H1.89815L3.22771 47.0922C3.9622 47.3505 5.19944 47.7027 6.75792 47.8302C7.11714 47.8596 7.5045 47.8774 7.91624 47.8774C10.0408 47.8774 12.8091 47.402 15.6326 45.5899C17.7884 47.4111 21.5873 48.5968 25.9995 48.5968C26.419 48.5968 26.759 48.2569 26.759 47.8373C26.759 47.4179 26.419 47.0778 25.9995 47.0778C23.0435 47.0778 20.2762 46.5038 18.2077 45.4615C16.332 44.5163 15.2563 43.2697 15.2563 42.0413C15.2563 40.459 17.0324 38.8828 19.8915 37.9275C20.0556 37.8726 20.1878 37.7667 20.2781 37.6338C20.848 38.2254 21.3958 38.7704 21.9092 39.2645C21.6704 39.3393 21.4407 39.42 21.2237 39.5086C19.7196 40.1216 18.8914 41.0211 18.8914 42.0415C18.8914 43.0618 19.7197 43.9613 21.2237 44.5742C22.5116 45.0992 24.2078 45.3881 25.9994 45.3881C27.7911 45.3881 29.4872 45.0991 30.7752 44.5742C32.2791 43.9613 33.1075 43.0618 33.1075 42.0415C33.1075 41.0212 32.2791 40.1216 30.7752 39.5086C30.5584 39.4202 30.3287 39.3394 30.0902 39.2647C30.5651 38.8076 31.0692 38.3077 31.5933 37.7669C34.0252 38.4828 35.8278 39.6395 36.4777 40.9595C36.49 40.9913 36.5042 41.0225 36.521 41.0526C36.6654 41.3745 36.7428 41.7053 36.7428 42.0415C36.7428 43.788 34.5928 45.5029 31.2654 46.4101C30.8607 46.5205 30.6221 46.938 30.7323 47.3426C30.8244 47.6804 31.1305 47.9025 31.4645 47.9025C31.5306 47.9025 31.5979 47.8938 31.6648 47.8756C35.7339 46.7661 38.2616 44.5307 38.2616 42.0416C38.2616 41.6504 38.201 41.268 38.0842 40.8967C39.0027 40.1109 41.6074 38.1592 44.9798 37.9812L46.9978 42.8299C46.6449 43.3955 45.6511 44.7607 43.5658 46.1757C43.2186 46.4111 43.1283 46.8833 43.3638 47.2305C43.5106 47.447 43.7497 47.5636 43.993 47.5636C44.1397 47.5636 44.288 47.5211 44.4187 47.4325C46.0206 46.3457 47.0541 45.274 47.6849 44.4805L50.1016 50.2872H38.3651V50.2869Z" fill="#6CD3FF"/>
</svg>
