<svg width="60" height="60" viewBox="0 0 60 60" fill="none" xmlns="http://www.w3.org/2000/svg">
<path d="M54.8019 46.0836L60.0002 43.1461V6.71289L50.2529 11.8881V18.0413L54.7298 15.5244L54.8019 46.0836Z" fill="#7EC7FF"/>
<path d="M42.1659 52.587L47.3643 49.79V0L30.036 9.79033L12.4766 0V10.0695L17.7302 12.8674L17.6169 8.671L29.9199 15.5066L42.1659 8.671V52.587Z" fill="#7EC7FF"/>
<path d="M12.4769 23.0947L17.7614 26.0141V43.357L12.418 40.4195L12.4769 23.0947Z" fill="#7EC7FF"/>
<path d="M38.9893 24.3349V18.509L29.9205 23.5084L0 6.71289V43.0763L29.7473 59.9996L35.2349 57.0621L5.05428 40.1398V15.3839L29.8915 29.3706L38.9893 24.3349Z" fill="#7EC7FF"/>
</svg>
