<svg width="67" height="36" viewBox="0 0 67 36" fill="none" xmlns="http://www.w3.org/2000/svg">
<path d="M11.04 5.472L18.144 4.512L14.736 20.544C16.272 20.416 17.68 19.744 18.96 18.528C20.272 17.312 21.296 15.808 22.032 14.016C22.768 12.224 23.136 10.464 23.136 8.736C23.136 6.816 22.64 5.248 21.648 4.032C20.656 2.816 19.168 2.208 17.184 2.208C13.28 2.208 10.224 3.232 8.016 5.28C5.84 7.328 4.752 10.192 4.752 13.872C4.752 15.056 4.864 15.888 5.088 16.368C5.312 16.816 5.424 17.072 5.424 17.136C3.696 17.136 2.4 16.784 1.536 16.08C0.704 15.344 0.288 14.144 0.288 12.48C0.288 10.432 1.12 8.448 2.784 6.528C4.48 4.576 6.64 3.008 9.264 1.824C11.888 0.607998 14.512 -2.86102e-06 17.136 -2.86102e-06C19.664 -2.86102e-06 21.776 0.431997 23.472 1.296C25.168 2.16 26.416 3.312 27.216 4.752C28.048 6.16 28.464 7.728 28.464 9.456C28.464 11.536 27.888 13.568 26.736 15.552C25.616 17.536 24 19.168 21.888 20.448C19.776 21.696 17.344 22.32 14.592 22.32H14.352L11.424 36H4.512L11.04 5.472Z" fill="#444245"/>
<path d="M42.9236 3.024C40.4916 3.824 38.6036 5.152 37.2596 7.008C35.9476 8.832 35.2916 11.104 35.2916 13.824C35.2916 15.04 35.4036 15.872 35.6276 16.32C35.8516 16.768 35.9636 17.04 35.9636 17.136C32.5396 17.136 30.8276 15.68 30.8276 12.768C30.8276 10.784 31.5796 8.8 33.0836 6.816C34.6196 4.8 36.5716 3.168 38.9396 1.92C41.3396 0.639997 43.7236 -2.86102e-06 46.0916 -2.86102e-06C47.2756 -2.86102e-06 48.4916 0.223997 49.7396 0.671997L48.6356 25.968L59.1956 0.671997H66.1076L61.0676 36H54.1556L57.2276 14.448L48.2036 36H41.6276L42.5876 14.352L34.5716 36H30.7316L42.9236 3.024Z" fill="#40B3E0"/>
</svg>
